<svg width="1494" height="243" viewBox="0 0 1494 243" fill="none" xmlns="http://www.w3.org/2000/svg">
<g clip-path="url(#clip0_51_29)">
<g filter="url(#filter0_d_51_29)">
<path d="M38.0859 203.052C21.6064 203.052 12.207 193.286 12.207 175.952V50.9521C12.207 33.6182 21.6064 23.8525 38.0859 23.8525H115.601C129.517 23.8525 138.428 31.2988 138.428 44.4824C138.428 57.666 129.272 65.1123 115.601 65.1123H63.9648V98.8037H110.352C123.291 98.8037 131.592 105.884 131.592 118.213C131.592 130.542 123.535 137.622 110.352 137.622H63.9648V175.952C63.9648 193.286 54.5654 203.052 38.0859 203.052ZM205.176 203.052C188.696 203.052 179.297 193.286 179.297 175.952V50.9521C179.297 33.6182 188.696 23.8525 205.176 23.8525H257.544C304.541 23.8525 328.711 45.9473 328.711 83.667C328.711 103.198 320.41 121.631 303.687 131.396L322.119 161.67C326.636 169.238 327.612 173.267 327.612 179.37C327.612 193.164 316.87 203.052 301.855 203.052C289.16 203.052 284.033 198.535 274.878 182.3L251.685 140.918H231.055V175.952C231.055 193.286 221.655 203.052 205.176 203.052ZM231.055 106.738H252.417C266.943 106.738 275.854 97.8271 275.854 84.5215C275.854 71.46 266.455 62.0605 252.539 62.0605H231.055V106.738ZM459.18 203.052C404.614 203.052 370.435 168.262 370.435 111.987C370.435 55.7129 404.736 20.8008 459.18 20.8008C513.623 20.8008 547.925 55.7129 547.925 111.987C547.925 168.262 513.623 203.052 459.18 203.052ZM459.18 161.792C480.908 161.792 495.19 142.383 495.19 111.987C495.19 81.4697 480.786 62.0605 459.18 62.0605C437.573 62.0605 423.169 81.4697 423.169 111.987C423.169 142.383 437.451 161.792 459.18 161.792ZM650.073 203.052C633.594 203.052 624.194 193.286 624.194 175.952V65.1123H598.193C584.521 65.1123 575.366 57.666 575.366 44.4824C575.366 31.2988 584.277 23.8525 598.193 23.8525H701.953C715.869 23.8525 724.78 31.2988 724.78 44.4824C724.78 57.666 715.625 65.1123 701.953 65.1123H675.952V175.952C675.952 193.286 666.553 203.052 650.073 203.052ZM841.211 203.052C785.303 203.052 752.222 170.215 752.222 111.743C752.222 54.0039 785.303 20.8008 839.624 20.8008C874.902 20.8008 901.514 35.9375 911.89 54.4922C914.453 59.2529 915.43 63.4033 915.43 67.7979C915.43 80.7373 906.396 89.6484 893.213 89.6484C883.081 89.6484 875.391 85.7422 869.043 77.3193C860.742 66.2109 852.319 61.5723 839.868 61.5723C817.896 61.5723 804.956 79.6387 804.956 111.011C804.956 143.115 819.727 162.28 842.432 162.28C859.277 162.28 871.24 152.881 872.705 138.721L872.949 136.279H862.817C851.221 136.279 843.652 130.176 843.652 119.067C843.652 107.959 851.099 101.855 862.817 101.855H896.875C913.354 101.855 922.754 111.621 922.754 128.955C922.754 170.825 893.701 203.052 841.211 203.052ZM994.141 200C977.661 200 968.262 190.234 968.262 172.9V50.9521C968.262 33.6182 977.661 23.8525 994.141 23.8525H1072.14C1086.06 23.8525 1094.97 31.2988 1094.97 44.4824C1094.97 57.666 1085.82 65.1123 1072.14 65.1123H1020.02V93.4326H1070.07C1082.4 93.4326 1090.45 100.146 1090.45 111.987C1090.45 123.828 1082.64 130.542 1070.07 130.542H1020.02V158.74H1072.14C1085.82 158.74 1094.97 166.187 1094.97 179.37C1094.97 192.554 1086.06 200 1072.14 200H994.141ZM1212.74 203.052C1173.07 203.052 1150.12 188.77 1142.55 171.558C1140.72 167.529 1139.87 163.379 1139.87 159.351C1139.87 146.899 1149.27 138.354 1162.08 138.354C1171.85 138.354 1178.44 141.406 1185.4 151.172C1191.5 159.839 1201.76 163.379 1213.35 163.379C1228.86 163.379 1238.38 157.031 1238.38 148.364C1238.38 140.063 1231.54 136.523 1211.77 132.983L1194.07 129.81C1159.03 123.584 1139.87 105.884 1139.87 78.54C1139.87 43.1396 1170.39 20.8008 1212.26 20.8008C1247.17 20.8008 1272.19 33.1299 1281.35 55.1025C1282.81 58.6426 1283.54 61.9385 1283.54 65.9668C1283.54 77.6855 1275 85.6201 1262.06 85.7422C1251.07 85.7422 1244.12 81.958 1237.89 72.5586C1232.15 63.7695 1223.97 60.4736 1212.87 60.4736C1198.46 60.4736 1191.14 66.8213 1191.14 74.7559C1191.14 82.6904 1198.71 86.4746 1216.28 89.6484L1233.98 92.8223C1271.83 99.6582 1289.65 115.161 1289.65 143.726C1289.65 179.98 1261.33 203.052 1212.74 203.052ZM1399.49 203.052C1383.01 203.052 1373.61 193.286 1373.61 175.952V65.1123H1347.61C1333.94 65.1123 1324.78 57.666 1324.78 44.4824C1324.78 31.2988 1333.69 23.8525 1347.61 23.8525H1451.37C1465.28 23.8525 1474.19 31.2988 1474.19 44.4824C1474.19 57.666 1465.04 65.1123 1451.37 65.1123H1425.37V175.952C1425.37 193.286 1415.97 203.052 1399.49 203.052Z" fill="url(#paint0_linear_51_29)"/>
</g>
</g>
<defs>
<filter id="filter0_d_51_29" x="8.20703" y="20.8008" width="1469.99" height="190.251" filterUnits="userSpaceOnUse" color-interpolation-filters="sRGB">
<feFlood flood-opacity="0" result="BackgroundImageFix"/>
<feColorMatrix in="SourceAlpha" type="matrix" values="0 0 0 0 0 0 0 0 0 0 0 0 0 0 0 0 0 0 127 0" result="hardAlpha"/>
<feOffset dy="4"/>
<feGaussianBlur stdDeviation="2"/>
<feComposite in2="hardAlpha" operator="out"/>
<feColorMatrix type="matrix" values="0 0 0 0 0 0 0 0 0 0 0 0 0 0 0 0 0 0 0.25 0"/>
<feBlend mode="normal" in2="BackgroundImageFix" result="effect1_dropShadow_51_29"/>
<feBlend mode="normal" in="SourceGraphic" in2="effect1_dropShadow_51_29" result="shape"/>
</filter>
<linearGradient id="paint0_linear_51_29" x1="0" y1="177" x2="1596" y2="177" gradientUnits="userSpaceOnUse">
<stop stop-color="#89A5C6"/>
<stop offset="1" stop-color="#B87E7E"/>
</linearGradient>
<clipPath id="clip0_51_29">
<rect width="1494" height="243" fill="white"/>
</clipPath>
</defs>
</svg>
